<svg width="1440" height="1586" viewBox="0 0 1440 1586" fill="none" xmlns="http://www.w3.org/2000/svg">
<g opacity="0.15" filter="url(#filter0_f)">
<rect x="213" y="321.785" width="1022.45" height="952.068" rx="476.034" transform="rotate(-0.548337 213 321.785)" fill="url(#paint0_linear)"/>
</g>
<g opacity="0.5">
<path d="M-225.25 901.5H-251.5V1059H-221.094V956.188L-148.906 1059H-122.656V901.5H-152.844V1004.31L-225.25 901.5Z" fill="#372B43" fill-opacity="0.62"/>
<path d="M-20.0488 1062.28C1.82617 1062.28 23.4824 1053.97 37.9199 1036.47C50.8262 1020.72 55.8574 1002.13 56.2949 980.25C55.8574 959.25 51.2637 940 37.9199 923.813C23.9199 906.75 2.70117 898.219 -20.0488 898.219C-42.7988 898.219 -64.2363 906.531 -78.0176 923.813C-90.7051 939.125 -96.3926 959.25 -96.3926 980.25C-96.3926 1001.25 -90.7051 1021.16 -78.0176 1036.47C-64.4551 1053.53 -42.5801 1062.28 -20.0488 1062.28ZM-20.0488 1034.28C-33.6113 1034.5 -46.7363 1029.03 -54.3926 1018.53C-62.4863 1008.03 -64.8926 994.031 -65.1113 980.25C-64.8926 966.469 -62.4863 952.25 -54.3926 941.969C-46.7363 931.469 -33.6113 926 -20.0488 926.219C-6.48633 926 6.41992 931.469 14.2949 941.969C22.1699 952.25 24.7949 966.469 24.7949 980.25C24.7949 994.031 22.1699 1008.03 14.2949 1018.53C6.41992 1029.03 -6.48633 1034.5 -20.0488 1034.28Z" fill="#372B43" fill-opacity="0.62"/>
<path d="M192.016 901.5H62.9531V931.25H112.609V1059H142.359V931.25H192.016V901.5Z" fill="#372B43" fill-opacity="0.62"/>
<path d="M301.09 1059H331.715L283.59 901.5H239.184L191.059 1059H221.684L229.121 1034.5H293.434L301.09 1059ZM237.652 1006.5L261.059 929.5L284.902 1006.5H237.652Z" fill="#372B43" fill-opacity="0.62"/>
<path d="M456.279 982.219C453.873 979.156 451.248 976.313 448.404 973.688C448.623 973.469 449.061 973.031 449.279 972.594C455.186 965.156 458.686 955.531 458.467 946.344C458.248 936.719 455.186 927.094 449.279 919.656C444.029 912 435.936 906.313 426.748 903.688C422.373 902.156 417.779 901.5 413.186 901.5H350.404V1059H416.904C421.936 1059 426.967 1057.91 431.779 1056.59C441.404 1053.53 450.154 1047.63 456.279 1039.53C462.404 1031 465.686 1020.94 465.686 1010.88C465.686 1000.38 462.404 990.313 456.279 982.219ZM412.967 929.281C416.467 929.281 421.717 932.125 423.904 934.969C426.748 938.031 428.061 942.188 428.279 946.344C428.498 950.063 426.967 953.781 424.561 956.625C422.154 959.688 417.779 962.094 414.717 962.75H380.592V929.281H412.967ZM435.717 1010.88C435.498 1016.56 433.529 1022.03 429.154 1025.75C425.654 1028.81 421.279 1031 416.467 1031H380.592V990.75H416.467C421.498 990.75 425.654 991.844 430.029 996.219C433.748 1000.16 435.936 1005.63 435.717 1010.88Z" fill="#372B43" fill-opacity="0.62"/>
</g>
<g opacity="0.5">
<path d="M847.75 570.5H821.5V728H851.906V625.188L924.094 728H950.344V570.5H920.156V673.313L847.75 570.5Z" fill="#372B43" fill-opacity="0.62"/>
<path d="M1052.95 731.281C1074.83 731.281 1096.48 722.969 1110.92 705.469C1123.83 689.719 1128.86 671.125 1129.29 649.25C1128.86 628.25 1124.26 609 1110.92 592.813C1096.92 575.75 1075.7 567.219 1052.95 567.219C1030.2 567.219 1008.76 575.531 994.982 592.813C982.295 608.125 976.607 628.25 976.607 649.25C976.607 670.25 982.295 690.156 994.982 705.469C1008.54 722.531 1030.42 731.281 1052.95 731.281ZM1052.95 703.281C1039.39 703.5 1026.26 698.031 1018.61 687.531C1010.51 677.031 1008.11 663.031 1007.89 649.25C1008.11 635.469 1010.51 621.25 1018.61 610.969C1026.26 600.469 1039.39 595 1052.95 595.219C1066.51 595 1079.42 600.469 1087.29 610.969C1095.17 621.25 1097.79 635.469 1097.79 649.25C1097.79 663.031 1095.17 677.031 1087.29 687.531C1079.42 698.031 1066.51 703.5 1052.95 703.281Z" fill="#372B43" fill-opacity="0.62"/>
<path d="M1265.02 570.5H1135.95V600.25H1185.61V728H1215.36V600.25H1265.02V570.5Z" fill="#372B43" fill-opacity="0.62"/>
<path d="M1374.09 728H1404.71L1356.59 570.5H1312.18L1264.06 728H1294.68L1302.12 703.5H1366.43L1374.09 728ZM1310.65 675.5L1334.06 598.5L1357.9 675.5H1310.65Z" fill="#372B43" fill-opacity="0.62"/>
<path d="M1529.28 651.219C1526.87 648.156 1524.25 645.313 1521.4 642.688C1521.62 642.469 1522.06 642.031 1522.28 641.594C1528.19 634.156 1531.69 624.531 1531.47 615.344C1531.25 605.719 1528.19 596.094 1522.28 588.656C1517.03 581 1508.94 575.313 1499.75 572.688C1495.37 571.156 1490.78 570.5 1486.19 570.5H1423.4V728H1489.9C1494.94 728 1499.97 726.906 1504.78 725.594C1514.4 722.531 1523.15 716.625 1529.28 708.531C1535.4 700 1538.69 689.938 1538.69 679.875C1538.69 669.375 1535.4 659.313 1529.28 651.219ZM1485.97 598.281C1489.47 598.281 1494.72 601.125 1496.9 603.969C1499.75 607.031 1501.06 611.188 1501.28 615.344C1501.5 619.063 1499.97 622.781 1497.56 625.625C1495.15 628.688 1490.78 631.094 1487.72 631.75H1453.59V598.281H1485.97ZM1508.72 679.875C1508.5 685.563 1506.53 691.031 1502.15 694.75C1498.65 697.813 1494.28 700 1489.47 700H1453.59V659.75H1489.47C1494.5 659.75 1498.65 660.844 1503.03 665.219C1506.75 669.156 1508.94 674.625 1508.72 679.875Z" fill="#372B43" fill-opacity="0.62"/>
</g>
<g opacity="0.5">
<path d="M996.75 857.5H970.5V1015H1000.91V912.188L1073.09 1015H1099.34V857.5H1069.16V960.313L996.75 857.5Z" fill="#372B43" fill-opacity="0.62"/>
<path d="M1201.95 1018.28C1223.83 1018.28 1245.48 1009.97 1259.92 992.469C1272.83 976.719 1277.86 958.125 1278.29 936.25C1277.86 915.25 1273.26 896 1259.92 879.813C1245.92 862.75 1224.7 854.219 1201.95 854.219C1179.2 854.219 1157.76 862.531 1143.98 879.813C1131.29 895.125 1125.61 915.25 1125.61 936.25C1125.61 957.25 1131.29 977.156 1143.98 992.469C1157.54 1009.53 1179.42 1018.28 1201.95 1018.28ZM1201.95 990.281C1188.39 990.5 1175.26 985.031 1167.61 974.531C1159.51 964.031 1157.11 950.031 1156.89 936.25C1157.11 922.469 1159.51 908.25 1167.61 897.969C1175.26 887.469 1188.39 882 1201.95 882.219C1215.51 882 1228.42 887.469 1236.29 897.969C1244.17 908.25 1246.79 922.469 1246.79 936.25C1246.79 950.031 1244.17 964.031 1236.29 974.531C1228.42 985.031 1215.51 990.5 1201.95 990.281Z" fill="#372B43" fill-opacity="0.62"/>
<path d="M1414.02 857.5H1284.95V887.25H1334.61V1015H1364.36V887.25H1414.02V857.5Z" fill="#372B43" fill-opacity="0.62"/>
<path d="M1523.09 1015H1553.71L1505.59 857.5H1461.18L1413.06 1015H1443.68L1451.12 990.5H1515.43L1523.09 1015ZM1459.65 962.5L1483.06 885.5L1506.9 962.5H1459.65Z" fill="#372B43" fill-opacity="0.62"/>
<path d="M1678.28 938.219C1675.87 935.156 1673.25 932.313 1670.4 929.688C1670.62 929.469 1671.06 929.031 1671.28 928.594C1677.19 921.156 1680.69 911.531 1680.47 902.344C1680.25 892.719 1677.19 883.094 1671.28 875.656C1666.03 868 1657.94 862.313 1648.75 859.688C1644.37 858.156 1639.78 857.5 1635.19 857.5H1572.4V1015H1638.9C1643.94 1015 1648.97 1013.91 1653.78 1012.59C1663.4 1009.53 1672.15 1003.63 1678.28 995.531C1684.4 987 1687.69 976.938 1687.69 966.875C1687.69 956.375 1684.4 946.313 1678.28 938.219ZM1634.97 885.281C1638.47 885.281 1643.72 888.125 1645.9 890.969C1648.75 894.031 1650.06 898.188 1650.28 902.344C1650.5 906.063 1648.97 909.781 1646.56 912.625C1644.15 915.688 1639.78 918.094 1636.72 918.75H1602.59V885.281H1634.97ZM1657.72 966.875C1657.5 972.563 1655.53 978.031 1651.15 981.75C1647.65 984.813 1643.28 987 1638.47 987H1602.59V946.75H1638.47C1643.5 946.75 1647.65 947.844 1652.03 952.219C1655.75 956.156 1657.94 961.625 1657.72 966.875Z" fill="#372B43" fill-opacity="0.62"/>
</g>
<g opacity="0.5">
<path d="M-43.25 570.5H-69.5V728H-39.0938V625.188L33.0938 728H59.3438V570.5H29.1563V673.313L-43.25 570.5Z" fill="#372B43" fill-opacity="0.62"/>
<path d="M161.951 731.281C183.826 731.281 205.482 722.969 219.92 705.469C232.826 689.719 237.857 671.125 238.295 649.25C237.857 628.25 233.264 609 219.92 592.813C205.92 575.75 184.701 567.219 161.951 567.219C139.201 567.219 117.764 575.531 103.982 592.813C91.2949 608.125 85.6074 628.25 85.6074 649.25C85.6074 670.25 91.2949 690.156 103.982 705.469C117.545 722.531 139.42 731.281 161.951 731.281ZM161.951 703.281C148.389 703.5 135.264 698.031 127.607 687.531C119.514 677.031 117.107 663.031 116.889 649.25C117.107 635.469 119.514 621.25 127.607 610.969C135.264 600.469 148.389 595 161.951 595.219C175.514 595 188.42 600.469 196.295 610.969C204.17 621.25 206.795 635.469 206.795 649.25C206.795 663.031 204.17 677.031 196.295 687.531C188.42 698.031 175.514 703.5 161.951 703.281Z" fill="#372B43" fill-opacity="0.62"/>
<path d="M374.016 570.5H244.953V600.25H294.609V728H324.359V600.25H374.016V570.5Z" fill="#372B43" fill-opacity="0.62"/>
<path d="M483.09 728H513.715L465.59 570.5H421.184L373.059 728H403.684L411.121 703.5H475.434L483.09 728ZM419.652 675.5L443.059 598.5L466.902 675.5H419.652Z" fill="#372B43" fill-opacity="0.62"/>
<path d="M638.279 651.219C635.873 648.156 633.248 645.313 630.404 642.688C630.623 642.469 631.061 642.031 631.279 641.594C637.186 634.156 640.686 624.531 640.467 615.344C640.248 605.719 637.186 596.094 631.279 588.656C626.029 581 617.936 575.313 608.748 572.688C604.373 571.156 599.779 570.5 595.186 570.5H532.404V728H598.904C603.936 728 608.967 726.906 613.779 725.594C623.404 722.531 632.154 716.625 638.279 708.531C644.404 700 647.686 689.938 647.686 679.875C647.686 669.375 644.404 659.313 638.279 651.219ZM594.967 598.281C598.467 598.281 603.717 601.125 605.904 603.969C608.748 607.031 610.061 611.188 610.279 615.344C610.498 619.063 608.967 622.781 606.561 625.625C604.154 628.688 599.779 631.094 596.717 631.75H562.592V598.281H594.967ZM617.717 679.875C617.498 685.563 615.529 691.031 611.154 694.75C607.654 697.813 603.279 700 598.467 700H562.592V659.75H598.467C603.498 659.75 607.654 660.844 612.029 665.219C615.748 669.156 617.936 674.625 617.717 679.875Z" fill="#372B43" fill-opacity="0.62"/>
</g>
<defs>
<filter id="filter0_f" x="-98.5688" y="0.431152" width="1654.66" height="1584.95" filterUnits="userSpaceOnUse" color-interpolation-filters="sRGB">
<feFlood flood-opacity="0" result="BackgroundImageFix"/>
<feBlend mode="normal" in="SourceGraphic" in2="BackgroundImageFix" result="shape"/>
<feGaussianBlur stdDeviation="155.784" result="effect1_foregroundBlur"/>
</filter>
<linearGradient id="paint0_linear" x1="297.912" y1="1258.15" x2="506.773" y2="210.451" gradientUnits="userSpaceOnUse">
<stop stop-color="#F101BF"/>
<stop offset="1" stop-color="#0066FF"/>
</linearGradient>
</defs>
</svg>
